<svg width="25" height="26" viewBox="0 0 25 26" fill="none"><circle opacity="0.7" cx="12.5" cy="13" r="12.5" fill="#DBDCE0"></circle><path d="M10.5534 15.1945L10.6346 15.0075H11.0184L11.0996 15.1945L11.2302 15.4953H11.5582H11.9502H12.0428H12.5428H12.7293H12.9288H13.4288V14.9953V14.6454H13.4795C13.7879 14.6454 14.1054 14.5693 14.3505 14.3402C14.3659 14.3258 14.3807 14.3111 14.395 14.2961V14.9953V15.4953H14.895H15.2811H15.7811V14.9953V12.8855V12.3855H15.2811H14.895H14.395V12.7314C14.3798 12.7155 14.3639 12.7 14.3473 12.6848L14.1043 12.9494L14.3473 12.6848C14.102 12.4596 13.7858 12.3855 13.4795 12.3855H12.5428H12.0428V12.8855V13.9969L11.4382 12.6773L11.3045 12.3855H10.9836H10.6604H10.3378L10.2049 12.6794L9.25022 14.7892L8.93071 15.4953H9.70575H10.0948H10.4227L10.5534 15.1945ZM7.74723 9.04736C7.89634 8.85571 8.12918 8.73242 8.39081 8.73242H13.9226C13.9159 8.7741 13.9124 8.81685 13.9124 8.86042C13.9124 8.9248 13.92 8.98739 13.9344 9.04736H7.74723ZM7.57587 10.7048H17.4241V16.7795C17.4241 17.0481 17.2065 17.2658 16.9379 17.2658H8.06207C7.79355 17.2658 7.57587 17.0481 7.57587 16.7795V10.7048Z" fill="black" stroke="black"></path></svg>