<svg width="25" height="26" viewBox="0 0 25 26" fill="none"><circle opacity="0.7" cx="12.5" cy="13" r="12.5" fill="#EFF1FF"></circle><path fill-rule="evenodd" clip-rule="evenodd" d="M15.3097 10.1336V10.0627C15.3097 9.72944 15.5768 9.45931 15.9114 9.45931C16.2437 9.45931 16.5131 9.72605 16.5131 10.0627V11.2018L17.466 12.0476C17.8249 12.3661 17.7291 12.6243 17.253 12.6243H16.5131V17.3341C16.5131 17.5734 16.3148 17.7673 16.0818 17.7673H8.92179C8.68358 17.7673 8.49046 17.574 8.49046 17.3341V12.6243H7.7467C7.27026 12.6243 7.17413 12.3668 7.53372 12.0476L12.1737 7.92906C12.3538 7.76914 12.6443 7.76774 12.8261 7.92906L15.3097 10.1336Z" fill="black"></path><path d="M15.3097 10.1336L14.9778 10.5076L15.8097 11.246V10.1336H15.3097ZM16.5131 11.2018H16.0131V11.4265L16.1812 11.5757L16.5131 11.2018ZM17.466 12.0476L17.1341 12.4216L17.466 12.0476ZM16.5131 12.6243V12.1243H16.0131V12.6243H16.5131ZM8.49046 12.6243H8.99046V12.1243H8.49046V12.6243ZM7.53372 12.0476L7.86564 12.4216L7.53372 12.0476ZM12.1737 7.92906L12.5056 8.303L12.1737 7.92906ZM12.8261 7.92906L12.4942 8.303V8.303L12.8261 7.92906ZM15.8097 10.1336V10.0627H14.8097V10.1336H15.8097ZM15.8097 10.0627C15.8097 10.003 15.8555 9.95931 15.9114 9.95931V8.95931C15.2981 8.95931 14.8097 9.45584 14.8097 10.0627H15.8097ZM15.9114 9.95931C15.9681 9.95931 16.0131 10.0027 16.0131 10.0627H17.0131C17.0131 9.44935 16.5193 8.95931 15.9114 8.95931V9.95931ZM16.0131 10.0627V11.2018H17.0131V10.0627H16.0131ZM16.1812 11.5757L17.1341 12.4216L17.798 11.6737L16.845 10.8278L16.1812 11.5757ZM17.1341 12.4216C17.1951 12.4757 17.2069 12.5019 17.2027 12.4934C17.1976 12.4831 17.1607 12.3982 17.2037 12.282C17.2471 12.1646 17.332 12.123 17.346 12.1172C17.3571 12.1126 17.3332 12.1243 17.253 12.1243V13.1243C17.4109 13.1243 17.5775 13.1038 17.7293 13.0408C17.8838 12.9767 18.0596 12.8506 18.1416 12.6288C18.2232 12.4082 18.1726 12.1991 18.0995 12.0509C18.0272 11.9043 17.9164 11.7788 17.798 11.6737L17.1341 12.4216ZM17.253 12.1243H16.5131V13.1243H17.253V12.1243ZM16.0131 12.6243V17.3341H17.0131V12.6243H16.0131ZM16.0131 17.3341C16.0131 17.3126 16.0225 17.2957 16.032 17.2862C16.0409 17.2773 16.0577 17.2673 16.0818 17.2673V18.2673C16.5891 18.2673 17.0131 17.8514 17.0131 17.3341H16.0131ZM16.0818 17.2673H8.92179V18.2673H16.0818V17.2673ZM8.92179 17.2673C8.96128 17.2673 8.99046 17.2995 8.99046 17.3341H7.99046C7.99046 17.8486 8.40587 18.2673 8.92179 18.2673V17.2673ZM8.99046 17.3341V12.6243H7.99046V17.3341H8.99046ZM8.49046 12.1243H7.7467V13.1243H8.49046V12.1243ZM7.7467 12.1243C7.6663 12.1243 7.64212 12.1126 7.65303 12.1171C7.66663 12.1227 7.75192 12.1642 7.79554 12.2819C7.83877 12.3986 7.80158 12.4837 7.79655 12.4939C7.79239 12.5023 7.80437 12.476 7.86564 12.4216L7.2018 11.6737C7.08327 11.7789 6.97242 11.9044 6.90004 12.0509C6.82679 12.1991 6.77598 12.4085 6.85785 12.6294C6.94012 12.8514 7.11629 12.9772 7.27068 13.0411C7.42238 13.1039 7.58889 13.1243 7.7467 13.1243V12.1243ZM7.86564 12.4216L12.5056 8.303L11.8417 7.55512L7.2018 11.6737L7.86564 12.4216ZM12.5056 8.303C12.5008 8.30724 12.4972 8.3087 12.4966 8.30894C12.4961 8.30909 12.4975 8.3086 12.5 8.30859C12.5026 8.30859 12.5038 8.30908 12.5032 8.30886C12.5023 8.30853 12.4987 8.30703 12.4942 8.303L13.158 7.55512C12.7859 7.22483 12.2103 7.22801 11.8417 7.55512L12.5056 8.303ZM12.4942 8.303L14.9778 10.5076L15.6416 9.75967L13.158 7.55512L12.4942 8.303Z" fill="black"></path><rect x="13.8" y="13.4336" width="1.73333" height="3.46667" fill="white"></rect><path fill-rule="evenodd" clip-rule="evenodd" d="M7.6067 12.0335L12.5303 7.80078L14.427 9.15031L15.2221 9.94748L15.559 9.67231L15.9263 9.45785L16.4772 9.60959L16.5982 10.4391L16.7516 11.206L17.7 12.1245V12.5272H17.1794L16.7213 12.6142L16.568 13.4376V16.1144V17.553L16.2613 17.7674H13.5089H10.2985H8.82952L8.49254 17.4053V16.4503L8.5228 14.7325L8.58536 12.8003L8.24838 12.6142L7.29999 12.4968L7.6067 12.0335ZM15.5333 13.4341H13.8V16.9008H15.5333V13.4341Z" fill="black"></path></svg>