<svg width="41" height="40" viewBox="0 0 41 40" fill="none"><circle opacity="0.7" cx="20.5" cy="20" r="20" fill="#DBF8FF"></circle><path fill-rule="evenodd" clip-rule="evenodd" d="M26.3931 12.7187V13.2186V28.189V28.6654H14.6064V28.1967V13.2109V12.7187H18.9573C19.1744 11.8718 19.7419 11.3632 20.4858 11.3329C21.1759 11.3101 21.6685 11.7449 22.0375 12.7187H26.3931ZM19.5463 12.7187H21.4451C21.3376 12.298 20.9186 11.9563 20.4928 11.9563H20.4858C20.0338 11.9639 19.6221 12.3554 19.5463 12.7187ZM18.6077 14.7987H22.496C22.8431 14.7987 22.9264 14.7088 22.9264 14.3265V13.4195L22.3571 13.412V14.1616H18.6425V14.0417V13.412H18.0731V14.214C18.0731 14.7537 18.1217 14.7987 18.6077 14.7987ZM24.3727 23.995H19.9125H16.6058H16.5709C16.5079 23.995 16.445 23.995 16.3891 24.0335C16.3611 24.0566 16.2353 24.172 16.2283 24.3029C16.2283 24.4106 16.3052 24.5338 16.3821 24.5877C16.452 24.6338 16.5359 24.6338 16.6128 24.6338H16.6338H21.108H24.3517C24.5125 24.6338 24.6244 24.5954 24.6873 24.5184C24.7293 24.4645 24.7572 24.3952 24.7572 24.3106C24.7642 23.995 24.4706 23.995 24.3727 23.995ZM16.5918 22.7249H16.5359C16.494 22.7249 16.452 22.7172 16.4101 22.6941C16.3891 22.6864 16.2353 22.5709 16.2283 22.4247C16.2283 22.3015 16.3262 22.1861 16.3891 22.1322C16.4381 22.0917 16.4978 22.0926 16.5542 22.0935H16.5542L16.5779 22.0937H16.6198H19.8706H24.3797H24.4916C24.6593 22.1091 24.7642 22.2246 24.7642 22.4093C24.7642 22.594 24.6593 22.7172 24.4916 22.7249H24.3657H24.3378H16.6408H16.5918ZM24.3727 20.1848H20.1083H16.6058H16.5709L16.5472 20.1845C16.4923 20.1837 16.438 20.1829 16.3891 20.2233C16.3611 20.2464 16.2353 20.3618 16.2283 20.4927C16.2283 20.6004 16.3052 20.7236 16.3821 20.7774C16.452 20.8236 16.5359 20.8236 16.6128 20.8236H16.6338H21.2268H24.3448C24.5055 20.8236 24.6174 20.7851 24.6803 20.7082C24.7223 20.6543 24.7502 20.585 24.7502 20.5004C24.7642 20.1848 24.4636 20.1848 24.3727 20.1848ZM16.5779 18.2838H16.6198H19.8636H24.3727H24.4846C24.6524 18.2992 24.7572 18.4146 24.7572 18.5994C24.7572 18.7841 24.6524 18.9072 24.4846 18.9149H24.3587H24.3308H16.6338H16.5848H16.5289C16.487 18.9149 16.445 18.9072 16.4101 18.8841C16.3891 18.8764 16.2353 18.761 16.2283 18.6148C16.2283 18.4916 16.3262 18.3762 16.3891 18.3223C16.4381 18.2818 16.4978 18.2827 16.5542 18.2836C16.5622 18.2837 16.5701 18.2838 16.5779 18.2838Z" fill="#1DCBEF"></path></svg>