<svg width="25" height="25" viewBox="0 0 25 25" fill="none"><circle opacity="0.7" cx="12.5" cy="12.5" r="12.5" fill="#FFF5DB"></circle><path d="M15.0308 9.27355L9.67847 17.1523L6.75177 15.1641L12.1067 7.28146L15.0334 9.26973L15.0308 9.27355Z" fill="#FFE197"></path><path d="M14.293 9.53025L9.64539 16.3718L7.48649 14.9051L12.1342 8.0636L14.293 9.53025Z" fill="#FFF5DB"></path><path d="M11.793 11.0087C11.0342 10.4932 10.0167 10.6826 9.51409 11.4224C9.0115 12.1622 9.21341 13.18 9.96917 13.6934C10.7279 14.2089 11.7455 14.0196 12.2481 13.2798C12.7563 12.5382 12.5518 11.5242 11.793 11.0087Z" fill="#FFE197"></path><path d="M16.9371 10.7808L9.79797 17.086L7.45582 14.434L14.5984 8.12576L16.9405 10.7778L16.9371 10.7808Z" fill="#FFE197"></path><path d="M16.1587 10.8464L9.95947 16.3214L8.23178 14.3651L14.431 8.89008L16.1587 10.8464Z" fill="#FFF5DB"></path><path d="M13.3701 11.6586C12.7629 10.971 11.7301 10.9021 11.0598 11.4942C10.3894 12.0862 10.3326 13.1223 10.9374 13.8071C11.5446 14.4947 12.5773 14.5636 13.2477 13.9716C13.9239 13.3792 13.9773 12.3462 13.3701 11.6586Z" fill="#FFE197"></path><path d="M17.6714 12.5869L9.56885 17.6442L7.69027 14.6343L15.7967 9.57459L17.6753 12.5845L17.6714 12.5869Z" fill="#FFE197"></path><path d="M16.8898 12.5237L9.854 16.9151L8.46826 14.6948L15.504 10.3034L16.8898 12.5237Z" fill="#FFF5DB"></path><path d="M13.9974 12.8662C13.5104 12.0859 12.5003 11.8471 11.7395 12.322C10.9786 12.7969 10.7513 13.8122 11.2364 14.5895C11.7235 15.3698 12.7335 15.6086 13.4944 15.1337C14.2611 14.6595 14.4845 13.6466 13.9974 12.8662Z" fill="#FFE197"></path><path d="M13.2537 13.6282L11.4733 14.1514L11.4861 14.1969L13.2665 13.6736L13.2537 13.6282Z" fill="#FFF5DB"></path><path d="M13.3102 13.8283L11.5298 14.3516L11.5426 14.397L13.323 13.8738L13.3102 13.8283Z" fill="#FFF5DB"></path><path d="M12.0825 14.6421L11.8022 13.6464L11.9732 13.5962L12.5024 13.9864C12.6255 14.0755 12.7255 14.1602 12.8125 14.2464L12.8144 14.2436C12.764 14.1131 12.7253 13.9947 12.6817 13.8398L12.5642 13.4225L12.7126 13.3789L12.9928 14.3746L12.8344 14.4212L12.3072 14.0281C12.1903 13.9417 12.0778 13.8517 11.9873 13.762L11.9828 13.7656C12.0283 13.8886 12.0646 14.0077 12.1111 14.173L12.2309 14.5985L12.0825 14.6421Z" fill="#FFF5DB"></path><path d="M17.4261 12.4106C17.6352 12.4024 17.8442 12.4065 18.0491 12.4106C18.332 12.4147 18.5 12.5786 18.5 12.8655C18.5 14.3288 18.5 15.7962 18.5 17.2594C18.5 17.5422 18.332 17.7103 18.0491 17.7185C18.0245 17.7185 18 17.7185 17.9795 17.7185C14.3275 17.7185 10.6756 17.7185 7.02771 17.7185C6.96623 17.7185 6.90475 17.7144 6.84327 17.7062C6.65883 17.6734 6.53586 17.5381 6.51127 17.3537C6.50717 17.3086 6.50307 17.2635 6.50307 17.2225C6.49898 15.7798 6.49898 14.3411 6.50307 12.9024C6.50307 12.8 6.53177 12.6852 6.58095 12.5909C6.65063 12.4639 6.77769 12.4065 6.92524 12.4065C7.15887 12.4065 7.39659 12.4106 7.63022 12.4024L17.4261 12.4106ZM9.97058 12.3901C9.97058 12.3942 9.97468 12.3983 9.97468 12.4024C12.3232 12.4024 14.6677 12.4024 17.0286 12.4024L9.97058 12.3901ZM12.3724 15.0871C12.3724 15.7265 12.3724 16.3659 12.3724 17.0012C12.3724 17.034 12.3601 17.0791 12.3765 17.0996C12.4093 17.1447 12.4585 17.1979 12.5036 17.2061C12.5405 17.2102 12.5938 17.1529 12.6224 17.1119C12.6388 17.0914 12.6306 17.0463 12.6306 17.0135C12.6306 15.7306 12.6306 14.4477 12.6306 13.1606C12.6306 13.1238 12.6265 13.0869 12.6184 13.05C12.602 12.9844 12.5528 12.9434 12.4913 12.9639C12.4462 12.9803 12.4052 13.0295 12.3724 13.0705C12.356 13.0951 12.3683 13.1361 12.3683 13.1729C12.3724 13.8124 12.3724 14.4477 12.3724 15.0871Z" fill="#FFC83E"></path></svg>